<?xml version="1.0" encoding="iso-8859-1"?>
<!-- Generator: Adobe Illustrator 19.0.0, SVG Export Plug-In . SVG Version: 6.00 Build 0)  -->
<!-- License: CC0. Made by SVG Repo: https://www.svgrepo.com/svg/122841/coin -->
<svg version="1.1" id="Capa_1" xmlns="http://www.w3.org/2000/svg" xmlns:xlink="http://www.w3.org/1999/xlink" x="0px" y="0px"
	 viewBox="0 0 58 58" style="enable-background:new 0 0 58 58;" xml:space="preserve">
<g id="XMLID_90_">
	<path id="XMLID_122_" style="fill:#F4BF1A;" d="M43.918,44.203C33.805,54.316,18.832,56.016,9.069,48.646
		c0.599,0.793,1.25,1.556,1.969,2.275c9.567,9.567,26.188,8.459,37.123-2.475c10.934-10.935,12.042-27.556,2.474-37.123
		c-0.718-0.719-1.481-1.37-2.274-1.969C55.731,19.117,54.031,34.09,43.918,44.203"/>
	<path id="XMLID_121_" style="fill:#FFD949;" d="M46.393,7.08c9.568,9.568,8.46,26.188-2.475,37.123
		C32.983,55.138,16.363,56.246,6.795,46.678C-2.773,37.11-1.665,20.49,9.27,9.555C20.205-1.38,36.825-2.488,46.393,7.08"/>
	
	<path id="XMLID_119_" style="fill:#DCA815;" d="M44.596,43.467l4.256,4.256c0.461-0.49,0.906-0.989,1.329-1.499l-4.249-4.249
		C45.509,42.484,45.056,42.977,44.596,43.467"/>
	<path id="XMLID_118_" style="fill:#DCA815;" d="M40.895,46.837l4.258,4.258c0.525-0.407,1.039-0.837,1.544-1.284l-4.251-4.251
		C41.939,46.007,41.421,46.429,40.895,46.837"/>
	<path id="XMLID_117_" style="fill:#DCA815;" d="M47.746,39.545l4.255,4.255c0.386-0.57,0.752-1.148,1.095-1.733l-4.246-4.246
		C48.506,38.406,48.131,38.978,47.746,39.545"/>
	<path id="XMLID_116_" style="fill:#DCA815;" d="M50.29,35.018l4.26,4.259c0.301-0.662,0.573-1.331,0.822-2.005l-4.254-4.254
		C50.869,33.691,50.59,34.357,50.29,35.018"/>
	<path id="XMLID_115_" style="fill:#DCA815;" d="M36.62,49.633l4.256,4.256c0.603-0.326,1.201-0.668,1.789-1.04l-4.259-4.258
		C37.818,48.962,37.223,49.307,36.62,49.633"/>
	<path id="XMLID_114_" style="fill:#DCA815;" d="M31.683,51.767l4.255,4.255c0.693-0.228,1.384-0.478,2.068-0.761l-4.254-4.253
		C33.068,51.29,32.378,51.54,31.683,51.767"/>
	<path id="XMLID_113_" style="fill:#DCA815;" d="M24.555,53.125l4.259,4.259c0.851-0.048,1.706-0.137,2.561-0.267l-4.261-4.261
		C26.259,52.985,25.406,53.078,24.555,53.125"/>
	<path id="XMLID_112_" style="fill:#DCA815;" d="M16.688,52.328l4.27,4.27c1.14,0.306,2.306,0.527,3.49,0.663l-4.268-4.269
		C18.995,52.854,17.829,52.636,16.688,52.328"/>
	<path id="XMLID_111_" style="fill:#DCA815;" d="M52.368,28.611l4.252,4.252c0.162-0.818,0.287-1.637,0.373-2.455l-4.257-4.257
		C52.65,26.971,52.529,27.791,52.368,28.611"/>
	<path id="XMLID_88_" style="fill:#DCA815;" d="M57.103,26.275c-0.057-1.079-0.176-2.148-0.37-3.198l-4.281-4.281
		c0.199,1.065,0.352,2.142,0.409,3.237L57.103,26.275z"/>
	
	
</g>
</svg>
